<?xml version="1.0" encoding="UTF-8"?>
<svg id="Layer_1" data-name="Layer 1" xmlns="http://www.w3.org/2000/svg" viewBox="0 0 1080 1080">
  <defs>
    <style>
      .cls-1 {
        fill: #231f20;
      }
    </style>
  </defs>
  <path class="cls-1" d="M370.14,265.88c-20.31,26.35-51.23,85.93-64.4,212.53-2.16,20.77-19.7,36.53-40.57,36.53h-69.04c-.23,0-.46-.01-.69-.03-4.68-.48-53.01-6.66-37.45-56.78,15.16-48.86,90.76-162.03,204.19-203.01,6.56-2.37,12.22,5.25,7.96,10.77Z"/>
  <path class="cls-1" d="M154.74,565.38v98.39c0,14.39,13.09,26.06,29.24,26.06h97.66c16.15,0,29.24-11.67,29.24-26.06v-98.39c0-14.39-13.09-26.06-29.24-26.06h-97.66c-16.15,0-29.24,11.67-29.24,26.06Z"/>
  <rect class="cls-1" x="154.74" y="712.84" width="770.53" height="142.03" rx="41.79" ry="41.79"/>
  <path class="cls-1" d="M540.18,225.26s181.53-15,181.07,271.01c-.02,10.32,8.4,18.67,18.72,18.67h18.38s16.09-4.24,16.09-20.38-7.43-71.11-7.43-71.11c0,0-22.37-118.45-51.52-151.2-2.83-3.18-4.77-7.09-5.4-11.3-.83-5.53.57-10.98,11.63-6.28,25,10.64,112.76,53.32,171.21,145.67,21.18,33.45,32.34,72.27,32.34,111.87v142.24s.4,35.11-28.06,35.4c-40.16.4-307.83,0-307.83,0,0,0-29.07-1.36-29.07-36.34v-117.42c0-11.67-9.46-21.13-21.13-21.13h-1.36c-11.67,0-21.13,9.46-21.13,21.13v120.6s3.23,32.86-29.83,32.86h-101.75s-26.6-2.42-29.83-29.83v-144.76s-21.97-295.34,184.9-289.67Z"/>
  <circle class="cls-1" cx="540.09" cy="374.2" r="72.6"/>
</svg>